<?xml version="1.0" encoding="utf-8"?>
<!-- Generator: Adobe Illustrator 16.0.0, SVG Export Plug-In . SVG Version: 6.00 Build 0)  -->
<!DOCTYPE svg PUBLIC "-//W3C//DTD SVG 1.1//EN" "http://www.w3.org/Graphics/SVG/1.1/DTD/svg11.dtd">
<svg version="1.1" id="圖層_1" xmlns="http://www.w3.org/2000/svg" xmlns:xlink="http://www.w3.org/1999/xlink" x="0px" y="0px"
	 width="647px" height="211px" viewBox="0 0 647 211" enable-background="new 0 0 647 211" xml:space="preserve">
<path fill="#58595B" d="M144.442,58.545c-1.565,0.358-117.433,23.824-119.64,24.257c-7.855,1.539-9.243,9.421-1.747,13.368
	c2.597,1.368,44.576,22.623,46.52,23.613c2.883,1.468,4.959-1.7,2.878-3.931c-1.595-1.711-12.909-13.571-18.626-19.563
	c-1.981-2.076-1.615-4.019,1.315-4.928c3.382-1.049,88.82-28.396,90.348-29.014C148.12,61.283,146.796,58.006,144.442,58.545"/>
<path fill="#808183" d="M66.637,98.398c1.141,1.13,84.278,87.434,85.826,89.064c5.512,5.805,12.908,2.75,12.221-5.694
	c-0.239-2.925-4.053-49.285-4.26-51.456c-0.307-3.221-3.916-3.222-4.861-0.32c-0.676,2.071-7.004,21.529-7.996,25.098
	c-0.769,2.764-2.527,3.518-4.865,1.533c-2.699-2.292-72.076-60.189-73.417-61.147C66.976,93.826,64.92,96.701,66.637,98.398"/>
<path fill="#00A04B" d="M142.734,143.445c0.531-1.516,36.178-109.833,36.946-112.032c2.64-7.556-3.045-12.842-10.38-8.604
	c-2.541,1.47-42.9,25.662-44.773,26.779c-2.779,1.657-1.205,5.103,1.792,4.53c2.297-0.439,18.363-3.69,26.48-5.334
	c2.812-0.57,4.116,0.74,3.469,3.738c-0.735,3.404-17.019,88.159-17.31,89.781C138.456,145.098,141.935,145.724,142.734,143.445"/>
<rect x="419.211" y="70.284" fill="#58595B" width="6.807" height="5.161"/>
<path fill="#58595B" d="M330.801,50.438l3.621-3.802c-4.163-4.348-7.965-7.87-11.494-10.315l-3.437,4.072
	C322.658,42.565,326.457,46.002,330.801,50.438 M315.327,113.703l4.707,2.17c5.884-12.484,9.862-23.439,11.945-32.763l-5.065-1.267
	C325.103,90.17,321.208,100.756,315.327,113.703 M327.904,72.793l3.528-3.895c-4.067-4.253-7.874-7.513-11.399-9.956l-3.354,4.165
	C319.85,65.191,323.653,68.447,327.904,72.793 M348.453,70.216h-10.706v5.157h10.676c-0.31,17.721-5.265,30.525-14.815,38.147
	l4.344,3.169c10.408-9.594,15.747-23.985,15.747-43.084v-37.56h-5.245V70.216z M369.628,70.216h-10.964v5.157h10.964v40.676h5.248
	V36.771h-5.248V70.216z M389.814,117.14h5.245V80.602h-5.245V117.14z M389.814,35.687v34.529h-9.716v5.157l14.961,0.071V35.687
	H389.814z"/>
<path fill="#58595B" d="M578.989,38.58l-3.537-3.798c-6.06,6.243-13.482,11.307-22.075,14.842l-7.604,2.624l3.163,4.797
	C560.522,52.884,570.571,46.637,578.989,38.58 M630.124,52.248l-7.604-2.624c-8.593-3.535-16.014-8.599-22.082-14.842l-3.526,3.798
	c8.413,8.057,18.462,14.304,30.046,18.465L630.124,52.248z M585.954,50.979c-11.672,11.224-25.249,19.82-40.452,25.523l2.985,4.703
	c13.758-4.429,26.965-12.575,39.46-24.523c5.519,4.799,11.672,9.23,18.559,13.396c7.957,4.975,14.837,8.322,20.537,10.139
	l2.987-4.799c-13.3-4.798-26.789-13.029-40.094-24.438H585.954z M615.645,80.576H560.34c-1.175,0-1.803,0.63-1.803,1.81v25.101
	h5.248V86.55c-0.089-0.454,0.176-0.725,0.718-0.725h46.979c0.54,0,0.813,0.271,0.813,0.725v26.066l-53.757,0.027v5.222h59.006
	V82.386C617.543,81.206,616.908,80.576,615.645,80.576"/>
<path fill="#58595B" d="M243.369,108.905V86.916l-0.452-0.996l-0.905-0.365h-19.82c-0.453,0-0.728-0.271-0.728-0.813V65.283
	c0-0.366,0.275-0.637,0.728-0.637h19.728l0.997-0.455l0.452-0.989V43.377h18.102v20.185c0,0.996,0.453,1.447,1.356,1.447h20.184
	c0.454,0,0.724,0.183,0.724,0.634v19.099c0,0.542-0.27,0.813-0.724,0.813h-20.274c-0.813,0-1.266,0.457-1.266,1.267v16.937h5.249
	V91.437c0-0.45,0.182-0.633,0.634-0.633h20.364c0.815,0,1.264-0.455,1.264-1.271V60.844c0-0.726-0.359-1.087-1.177-1.087h-20.451
	c-0.452,0-0.634-0.269-0.634-0.72v-15.66h24.165v-5.159h-77.113v5.159h24.348v15.294c0,0.459-0.269,0.726-0.632,0.726h-20.187
	l-0.813,0.271l-0.271,0.816v29.146l0.271,0.813l0.813,0.359h20.187c0.363,0,0.632,0.183,0.632,0.633v17.469h-25.794v5.249h80.368
	v-5.249H243.369z"/>
<path fill="#58595B" d="M523.563,38.713h-27.977c-1.435,0-2.599,1.164-2.599,2.6c0,12.778-7.111,24.612-13.717,30.199l3.356,3.971
	c7.28-6.157,14.62-18.104,15.477-31.57h22.824c-0.22,8.071-1.468,15.776-3.658,23.001h-19.987v5.199h18.217
	c-6.516,17.162-18.67,31.229-35.45,40.399l2.493,4.563c27.722-15.15,43.619-42.765,43.619-75.762
	C526.161,39.877,524.997,38.713,523.563,38.713 M444.394,43.638h13.139c-0.787,11.873-7.433,22.628-13.637,27.874l3.356,3.971
	c1.54-1.302,3.079-2.873,4.563-4.651v34.409h5.245V71.131c0-0.63,0.272-0.905,0.909-0.905h11.042c0.634,0,0.904,0.275,0.904,0.817
	v39.372l-18.101,0.062v5.136l21.452-0.039c1.176,0,1.808-0.542,1.808-1.809V66.698c0-1.176-0.632-1.722-1.72-1.722L456,64.904
	c3.605-6.013,6.285-13.381,6.734-21.267h12.007v0.105h4.771v-5.162h-35.119V43.638z"/>
<path fill="#58595B" d="M400.787,140.236h2.543l5.259,14.37h-2.563l-1.281-3.804h-5.448l-1.281,3.804h-2.466L400.787,140.236z
	 M399.946,148.891h4.168l-2.045-6.179h-0.058L399.946,148.891z"/>
<path fill="#58595B" d="M412.512,149.816c0,0.551,0.089,1.021,0.269,1.409c0.178,0.389,0.426,0.708,0.744,0.956
	c0.319,0.248,0.686,0.429,1.101,0.543c0.414,0.114,0.863,0.171,1.347,0.171c0.523,0,0.969-0.063,1.339-0.191
	c0.369-0.127,0.669-0.291,0.899-0.491c0.229-0.203,0.395-0.435,0.497-0.695c0.101-0.262,0.152-0.527,0.152-0.796
	c0-0.55-0.118-0.955-0.354-1.217c-0.236-0.262-0.494-0.446-0.774-0.554c-0.484-0.188-1.049-0.364-1.692-0.532
	s-1.438-0.387-2.38-0.655c-0.586-0.161-1.074-0.372-1.462-0.634c-0.391-0.262-0.698-0.554-0.929-0.876
	c-0.229-0.322-0.392-0.664-0.486-1.026c-0.097-0.362-0.145-0.731-0.145-1.106c0-0.725,0.145-1.352,0.431-1.882
	c0.286-0.529,0.666-0.97,1.138-1.318s1.007-0.607,1.605-0.775c0.6-0.167,1.204-0.251,1.816-0.251c0.714,0,1.386,0.098,2.018,0.292
	s1.186,0.486,1.663,0.875c0.479,0.39,0.857,0.869,1.139,1.44c0.279,0.569,0.42,1.229,0.42,1.981h-2.391
	c-0.063-0.926-0.362-1.58-0.897-1.963c-0.536-0.382-1.218-0.573-2.046-0.573c-0.281,0-0.567,0.03-0.86,0.091
	c-0.294,0.06-0.561,0.161-0.804,0.302c-0.242,0.141-0.442,0.332-0.603,0.573c-0.159,0.241-0.238,0.544-0.238,0.906
	c0,0.51,0.149,0.908,0.448,1.197c0.301,0.288,0.692,0.507,1.177,0.654c0.051,0.013,0.252,0.07,0.603,0.171
	c0.35,0.101,0.742,0.211,1.175,0.332c0.435,0.121,0.857,0.238,1.272,0.352c0.414,0.114,0.71,0.198,0.889,0.252
	c0.446,0.147,0.835,0.351,1.166,0.604c0.332,0.256,0.609,0.547,0.832,0.876c0.223,0.33,0.389,0.681,0.497,1.057
	s0.163,0.751,0.163,1.127c0,0.805-0.156,1.493-0.469,2.063c-0.313,0.569-0.725,1.036-1.233,1.398c-0.51,0.362-1.09,0.627-1.74,0.795
	c-0.649,0.167-1.313,0.251-1.987,0.251c-0.778,0-1.512-0.101-2.199-0.302c-0.689-0.201-1.288-0.51-1.797-0.926
	c-0.511-0.416-0.918-0.949-1.225-1.6c-0.306-0.65-0.465-1.419-0.478-2.305H412.512z"/>
<rect x="424.569" y="140.236" fill="#58595B" width="2.39" height="14.37"/>
<path fill="#58595B" d="M434.765,140.236h2.543l5.259,14.37h-2.563l-1.281-3.804h-5.449l-1.281,3.804h-2.466L434.765,140.236z
	 M433.924,148.891h4.168l-2.046-6.179h-0.058L433.924,148.891z"/>
<path fill="#58595B" d="M454.726,149.816c0,0.551,0.09,1.021,0.269,1.409c0.177,0.389,0.426,0.708,0.745,0.956
	c0.318,0.248,0.685,0.429,1.099,0.543s0.864,0.171,1.349,0.171c0.521,0,0.969-0.063,1.339-0.191
	c0.369-0.127,0.669-0.291,0.897-0.491c0.23-0.203,0.396-0.435,0.497-0.695c0.103-0.262,0.154-0.527,0.154-0.796
	c0-0.55-0.119-0.955-0.355-1.217c-0.234-0.262-0.493-0.446-0.773-0.554c-0.485-0.188-1.048-0.364-1.692-0.532
	c-0.644-0.168-1.437-0.387-2.381-0.655c-0.585-0.161-1.074-0.372-1.462-0.634c-0.389-0.262-0.698-0.554-0.927-0.876
	c-0.23-0.322-0.394-0.664-0.487-1.026c-0.096-0.362-0.144-0.731-0.144-1.106c0-0.725,0.144-1.352,0.43-1.882
	c0.287-0.529,0.666-0.97,1.137-1.318c0.473-0.349,1.007-0.607,1.607-0.775c0.598-0.167,1.204-0.251,1.815-0.251
	c0.715,0,1.387,0.098,2.018,0.292s1.185,0.486,1.664,0.875c0.477,0.39,0.855,0.869,1.138,1.44c0.279,0.569,0.419,1.229,0.419,1.981
	h-2.389c-0.065-0.926-0.363-1.58-0.899-1.963c-0.535-0.382-1.217-0.573-2.046-0.573c-0.28,0-0.566,0.03-0.859,0.091
	c-0.295,0.06-0.562,0.161-0.804,0.302c-0.243,0.141-0.442,0.332-0.602,0.573c-0.16,0.241-0.239,0.544-0.239,0.906
	c0,0.51,0.149,0.908,0.449,1.197c0.3,0.288,0.69,0.507,1.176,0.654c0.05,0.013,0.252,0.07,0.602,0.171
	c0.352,0.101,0.742,0.211,1.177,0.332c0.434,0.121,0.856,0.238,1.271,0.352c0.414,0.114,0.71,0.198,0.89,0.252
	c0.445,0.147,0.835,0.351,1.167,0.604c0.33,0.256,0.607,0.547,0.83,0.876c0.225,0.33,0.39,0.681,0.497,1.057
	c0.109,0.376,0.163,0.751,0.163,1.127c0,0.805-0.155,1.493-0.468,2.063c-0.313,0.569-0.724,1.036-1.233,1.398
	c-0.511,0.362-1.091,0.627-1.739,0.795c-0.651,0.167-1.314,0.251-1.988,0.251c-0.779,0-1.511-0.101-2.2-0.302
	c-0.688-0.201-1.288-0.51-1.796-0.926c-0.511-0.416-0.918-0.949-1.224-1.6c-0.308-0.65-0.466-1.419-0.479-2.305H454.726z"/>
<rect x="466.783" y="140.236" fill="#58595B" width="2.39" height="14.37"/>
<polygon fill="#58595B" points="473.225,140.236 475.614,140.236 475.614,152.433 482.555,152.433 482.555,154.606 473.225,154.606 
	"/>
<rect x="485.273" y="140.236" fill="#58595B" width="2.39" height="14.37"/>
<path fill="#58595B" d="M500.982,144.805c-0.104-0.415-0.242-0.798-0.421-1.146c-0.18-0.35-0.408-0.652-0.688-0.907
	c-0.281-0.255-0.609-0.452-0.985-0.593c-0.376-0.142-0.812-0.211-1.309-0.211c-0.727,0-1.355,0.153-1.884,0.462
	s-0.959,0.722-1.29,1.237c-0.332,0.517-0.577,1.104-0.736,1.762c-0.16,0.657-0.24,1.328-0.24,2.013c0,0.684,0.08,1.354,0.24,2.012
	c0.159,0.658,0.404,1.245,0.736,1.762c0.331,0.517,0.762,0.929,1.29,1.237c0.528,0.31,1.157,0.463,1.884,0.463
	c0.535,0,1.007-0.097,1.415-0.292c0.407-0.194,0.758-0.463,1.051-0.805s0.523-0.741,0.688-1.197c0.166-0.456,0.273-0.945,0.325-1.47
	h2.332c-0.052,0.86-0.226,1.645-0.525,2.355c-0.299,0.712-0.704,1.325-1.214,1.841c-0.511,0.517-1.108,0.916-1.797,1.198
	c-0.688,0.281-1.447,0.423-2.275,0.423c-1.021,0-1.935-0.199-2.744-0.595s-1.495-0.936-2.055-1.62
	c-0.563-0.684-0.991-1.482-1.291-2.395s-0.449-1.885-0.449-2.918c0-1.02,0.149-1.986,0.449-2.898s0.729-1.711,1.291-2.396
	c0.56-0.684,1.245-1.228,2.055-1.63s1.724-0.604,2.744-0.604c0.764,0,1.484,0.11,2.16,0.332c0.676,0.223,1.271,0.543,1.788,0.966
	c0.516,0.424,0.934,0.936,1.252,1.54c0.317,0.604,0.516,1.295,0.593,2.072H500.982z"/>
<path fill="#58595B" d="M512.518,139.895c1.02,0,1.934,0.201,2.742,0.604c0.811,0.402,1.495,0.946,2.057,1.63
	c0.56,0.685,0.991,1.483,1.291,2.396c0.299,0.912,0.449,1.879,0.449,2.898c0,1.033-0.15,2.006-0.449,2.918
	c-0.3,0.912-0.731,1.712-1.291,2.395c-0.562,0.685-1.246,1.225-2.057,1.62c-0.809,0.396-1.723,0.594-2.742,0.594
	c-1.021,0-1.936-0.198-2.744-0.594c-0.811-0.396-1.494-0.936-2.055-1.62c-0.562-0.683-0.991-1.482-1.291-2.395
	c-0.301-0.912-0.449-1.885-0.449-2.918c0-1.02,0.148-1.986,0.449-2.898c0.3-0.912,0.729-1.711,1.291-2.396
	c0.561-0.684,1.244-1.228,2.055-1.63C510.582,140.096,511.496,139.895,512.518,139.895 M512.518,141.947
	c-0.728,0-1.354,0.154-1.885,0.463c-0.527,0.309-0.959,0.722-1.289,1.237c-0.332,0.517-0.577,1.104-0.736,1.762
	s-0.239,1.328-0.239,2.013c0,0.684,0.08,1.354,0.239,2.012c0.159,0.659,0.404,1.245,0.736,1.762c0.33,0.517,0.762,0.929,1.289,1.237
	c0.53,0.309,1.157,0.463,1.885,0.463c0.727,0,1.354-0.154,1.883-0.463s0.959-0.721,1.291-1.237c0.331-0.517,0.576-1.103,0.736-1.762
	c0.158-0.657,0.237-1.328,0.237-2.012c0-0.685-0.079-1.355-0.237-2.013c-0.16-0.657-0.405-1.245-0.736-1.762
	c-0.332-0.516-0.762-0.929-1.291-1.237S513.244,141.947,512.518,141.947"/>
<polygon fill="#58595B" points="522.357,140.236 524.88,140.236 531.114,150.822 531.152,150.822 531.152,140.236 533.427,140.236 
	533.427,154.606 530.904,154.606 524.69,144.04 524.632,144.04 524.632,154.606 522.357,154.606 "/>
<polygon fill="#58595B" points="544.001,140.236 546.485,140.236 549.908,151.607 549.946,151.607 553.445,140.236 555.874,140.236 
	551.209,154.606 548.552,154.606 "/>
<path fill="#58595B" d="M561.2,140.236h2.543l5.259,14.37h-2.563l-1.281-3.804h-5.449l-1.281,3.804h-2.466L561.2,140.236z
	 M560.359,148.891h4.168l-2.046-6.179h-0.058L560.359,148.891z"/>
<polygon fill="#58595B" points="571.553,140.236 573.942,140.236 573.942,152.433 580.883,152.433 580.883,154.606 571.553,154.606 
	"/>
<polygon fill="#58595B" points="583.602,140.236 585.991,140.236 585.991,152.433 592.932,152.433 592.932,154.606 583.602,154.606 
	"/>
<polygon fill="#58595B" points="595.65,140.236 605.477,140.236 605.477,142.41 598.04,142.41 598.04,146.174 604.923,146.174 
	604.923,148.227 598.04,148.227 598.04,152.433 605.611,152.433 605.611,154.606 595.65,154.606 "/>
<polygon fill="#58595B" points="612.841,148.971 607.717,140.236 610.487,140.236 614.103,146.677 617.657,140.236 620.334,140.236 
	615.23,148.971 615.23,154.606 612.841,154.606 "/>
<path fill="#58595B" d="M396.733,160.938h5.659c1.045,0,1.951,0.188,2.715,0.563c0.766,0.376,1.391,0.89,1.874,1.54
	c0.484,0.651,0.845,1.412,1.08,2.284c0.236,0.872,0.354,1.805,0.354,2.798c0,0.992-0.118,1.925-0.354,2.797
	c-0.235,0.872-0.596,1.634-1.08,2.284c-0.483,0.652-1.108,1.164-1.874,1.54c-0.764,0.376-1.67,0.563-2.715,0.563h-5.659V160.938z
	 M399.124,173.255h2.352c0.93,0,1.691-0.131,2.284-0.393s1.058-0.624,1.396-1.086c0.339-0.463,0.567-1.007,0.688-1.631
	c0.121-0.623,0.182-1.299,0.182-2.022s-0.061-1.399-0.182-2.023s-0.35-1.167-0.688-1.63c-0.338-0.463-0.803-0.825-1.396-1.087
	s-1.354-0.393-2.284-0.393h-2.352V173.255z"/>
<polygon fill="#58595B" points="410.549,160.938 420.377,160.938 420.377,163.111 412.939,163.111 412.939,166.875 419.822,166.875 
	419.822,168.928 412.939,168.928 412.939,173.134 420.51,173.134 420.51,175.308 410.549,175.308 "/>
<polygon fill="#58595B" points="421.401,160.938 423.886,160.938 427.309,172.309 427.347,172.309 430.846,160.938 433.274,160.938 
	428.609,175.308 425.952,175.308 "/>
<polygon fill="#58595B" points="434.638,160.938 444.465,160.938 444.465,163.111 437.027,163.111 437.027,166.875 443.91,166.875 
	443.91,168.928 437.027,168.928 437.027,173.134 444.599,173.134 444.599,175.308 434.638,175.308 "/>
<polygon fill="#58595B" points="446.63,160.938 449.02,160.938 449.02,173.134 455.96,173.134 455.96,175.308 446.63,175.308 "/>
<path fill="#58595B" d="M462.97,160.596c1.02,0,1.934,0.201,2.743,0.604s1.494,0.946,2.056,1.63c0.56,0.685,0.991,1.483,1.291,2.396
	c0.299,0.912,0.449,1.879,0.449,2.898c0,1.033-0.15,2.006-0.449,2.918c-0.3,0.912-0.731,1.712-1.291,2.395
	c-0.562,0.685-1.246,1.225-2.056,1.62s-1.724,0.594-2.743,0.594c-1.021,0-1.936-0.198-2.744-0.594
	c-0.811-0.396-1.494-0.936-2.056-1.62c-0.561-0.683-0.99-1.482-1.291-2.395c-0.3-0.912-0.448-1.885-0.448-2.918
	c0-1.02,0.148-1.986,0.448-2.898c0.301-0.912,0.73-1.711,1.291-2.396c0.562-0.684,1.245-1.228,2.056-1.63
	C461.034,160.797,461.948,160.596,462.97,160.596 M462.97,162.648c-0.728,0-1.354,0.154-1.885,0.463
	c-0.527,0.309-0.959,0.722-1.29,1.237c-0.332,0.517-0.576,1.104-0.735,1.762s-0.239,1.328-0.239,2.013
	c0,0.684,0.08,1.354,0.239,2.012c0.159,0.659,0.403,1.245,0.735,1.762c0.331,0.517,0.763,0.929,1.29,1.237
	c0.53,0.309,1.157,0.463,1.885,0.463c0.727,0,1.354-0.154,1.883-0.463s0.959-0.721,1.291-1.237c0.331-0.517,0.576-1.103,0.735-1.762
	c0.159-0.657,0.238-1.328,0.238-2.012c0-0.685-0.079-1.355-0.238-2.013s-0.404-1.245-0.735-1.762
	c-0.332-0.516-0.762-0.929-1.291-1.237S463.696,162.648,462.97,162.648"/>
<path fill="#58595B" d="M471.633,160.938h6.023c0.969,0,1.759,0.147,2.371,0.443c0.611,0.296,1.083,0.664,1.415,1.106
	c0.331,0.442,0.558,0.926,0.679,1.449s0.181,1.006,0.181,1.45c0,0.441-0.06,0.922-0.181,1.438c-0.121,0.517-0.348,0.996-0.679,1.439
	c-0.332,0.442-0.804,0.809-1.415,1.097c-0.612,0.289-1.402,0.433-2.371,0.433h-3.633v5.515h-2.391V160.938z M474.023,167.74h3.499
	c0.268,0,0.542-0.04,0.821-0.121c0.281-0.08,0.538-0.211,0.775-0.393c0.235-0.181,0.426-0.422,0.573-0.724
	c0.146-0.303,0.221-0.682,0.221-1.138c0-0.47-0.065-0.858-0.192-1.167c-0.128-0.309-0.3-0.554-0.516-0.734
	c-0.217-0.182-0.466-0.306-0.745-0.373c-0.282-0.066-0.582-0.101-0.899-0.101h-3.537V167.74z"/>
<polygon fill="#58595B" points="483.997,160.938 487.361,160.938 491.129,172.188 491.167,172.188 494.838,160.938 498.165,160.938 
	498.165,175.308 495.89,175.308 495.89,164.218 495.851,164.218 492.064,175.308 490.096,175.308 486.31,164.218 486.271,164.218 
	486.271,175.308 483.997,175.308 "/>
<polygon fill="#58595B" points="500.98,160.938 510.808,160.938 510.808,163.111 503.37,163.111 503.37,166.875 510.253,166.875 
	510.253,168.928 503.37,168.928 503.37,173.134 510.941,173.134 510.941,175.308 500.98,175.308 "/>
<polygon fill="#58595B" points="512.925,160.938 515.447,160.938 521.682,171.523 521.72,171.523 521.72,160.938 523.994,160.938 
	523.994,175.308 521.472,175.308 515.258,164.741 515.199,164.741 515.199,175.308 512.925,175.308 "/>
<polygon fill="#58595B" points="525.444,160.938 536.495,160.938 536.495,163.111 532.155,163.111 532.155,175.308 529.764,175.308 
	529.764,163.111 525.444,163.111 "/>
<path fill="#58595B" d="M547.049,160.938h2.543l5.259,14.37h-2.563l-1.281-3.804h-5.449l-1.281,3.804h-2.466L547.049,160.938z
	 M546.208,169.592h4.168l-2.046-6.179h-0.058L546.208,169.592z"/>
<path fill="#58595B" d="M567.483,175.308h-1.529l-0.364-1.689c-0.637,0.764-1.273,1.294-1.912,1.589
	c-0.637,0.295-1.37,0.442-2.197,0.442c-1.021,0-1.935-0.197-2.744-0.594c-0.811-0.395-1.494-0.935-2.056-1.62
	c-0.561-0.684-0.99-1.481-1.291-2.395c-0.3-0.912-0.448-1.885-0.448-2.918c0-1.02,0.148-1.986,0.448-2.898
	c0.301-0.912,0.73-1.711,1.291-2.396c0.562-0.684,1.245-1.228,2.056-1.63c0.81-0.402,1.724-0.604,2.744-0.604
	c0.738,0,1.442,0.104,2.111,0.312s1.266,0.517,1.788,0.926c0.523,0.41,0.957,0.923,1.3,1.54c0.346,0.617,0.562,1.329,0.651,2.133
	h-2.333c-0.064-0.469-0.201-0.882-0.411-1.237s-0.475-0.654-0.793-0.896c-0.32-0.241-0.676-0.423-1.072-0.544
	c-0.394-0.12-0.809-0.181-1.241-0.181c-0.727,0-1.354,0.154-1.885,0.463c-0.528,0.309-0.959,0.722-1.29,1.237
	c-0.332,0.517-0.576,1.105-0.735,1.762c-0.159,0.657-0.239,1.328-0.239,2.013c0,0.684,0.08,1.354,0.239,2.012
	c0.159,0.658,0.403,1.245,0.735,1.762c0.331,0.517,0.762,0.929,1.29,1.237c0.53,0.309,1.158,0.463,1.885,0.463
	c0.61,0.014,1.152-0.07,1.625-0.251c0.472-0.182,0.869-0.443,1.194-0.785s0.571-0.762,0.736-1.258
	c0.166-0.496,0.255-1.047,0.267-1.65h-3.632v-1.912h5.813V175.308z"/>
<polygon fill="#58595B" points="570.105,160.938 579.933,160.938 579.933,163.111 572.495,163.111 572.495,166.875 579.378,166.875 
	579.378,168.928 572.495,168.928 572.495,173.134 580.066,173.134 580.066,175.308 570.105,175.308 "/>
<polygon fill="#58595B" points="582.049,160.938 584.571,160.938 590.806,171.523 590.844,171.523 590.844,160.938 593.118,160.938 
	593.118,175.308 590.596,175.308 584.382,164.741 584.323,164.741 584.323,175.308 582.049,175.308 "/>
<path fill="#58595B" d="M605.149,165.506c-0.104-0.415-0.242-0.798-0.421-1.146c-0.18-0.35-0.408-0.652-0.688-0.907
	c-0.281-0.255-0.609-0.452-0.985-0.593c-0.376-0.142-0.812-0.212-1.309-0.212c-0.727,0-1.355,0.154-1.884,0.463
	s-0.959,0.722-1.29,1.237c-0.332,0.517-0.577,1.104-0.736,1.762c-0.16,0.657-0.24,1.328-0.24,2.013c0,0.684,0.08,1.354,0.24,2.012
	c0.159,0.658,0.404,1.245,0.736,1.762c0.331,0.517,0.762,0.929,1.29,1.237c0.528,0.31,1.157,0.463,1.884,0.463
	c0.535,0,1.007-0.097,1.415-0.292c0.407-0.194,0.758-0.463,1.051-0.805s0.523-0.741,0.688-1.197c0.166-0.456,0.273-0.946,0.324-1.47
	h2.334c-0.053,0.86-0.227,1.645-0.526,2.355c-0.299,0.711-0.704,1.325-1.214,1.841c-0.51,0.517-1.108,0.916-1.797,1.198
	c-0.688,0.281-1.447,0.422-2.275,0.422c-1.021,0-1.935-0.198-2.744-0.594s-1.495-0.936-2.055-1.62
	c-0.563-0.684-0.991-1.482-1.291-2.395s-0.449-1.885-0.449-2.918c0-1.02,0.149-1.986,0.449-2.898s0.729-1.711,1.291-2.396
	c0.56-0.684,1.245-1.228,2.055-1.63s1.723-0.604,2.744-0.604c0.764,0,1.484,0.11,2.16,0.332s1.271,0.543,1.788,0.966
	c0.516,0.423,0.934,0.936,1.252,1.54c0.317,0.604,0.516,1.295,0.593,2.072H605.149z"/>
<polygon fill="#58595B" points="612.749,169.672 607.625,160.938 610.396,160.938 614.011,167.378 617.565,160.938 620.242,160.938 
	615.139,169.672 615.139,175.308 612.749,175.308 "/>
<line fill="none" stroke="#58595B" stroke-miterlimit="10" x1="382.06" y1="139.472" x2="382.06" y2="176.972"/>
<path fill="#58595B" d="M263.726,145.778c-1.522-1.105-3.468-1.658-5.838-1.658c-0.961,0-1.906,0.096-2.835,0.289
	c-0.929,0.191-1.753,0.513-2.474,0.961c-0.721,0.448-1.297,1.049-1.73,1.802c-0.432,0.752-0.648,1.689-0.648,2.811
	c0,1.057,0.312,1.914,0.937,2.57c0.624,0.657,1.457,1.193,2.498,1.609c1.041,0.417,2.217,0.762,3.531,1.033
	c1.313,0.272,2.65,0.569,4.013,0.889c1.36,0.321,2.697,0.697,4.011,1.13c1.313,0.432,2.491,1.017,3.532,1.752
	c1.041,0.738,1.874,1.666,2.498,2.788c0.625,1.122,0.937,2.53,0.937,4.229c0,1.825-0.408,3.387-1.225,4.685
	c-0.817,1.297-1.866,2.354-3.147,3.171c-1.282,0.816-2.715,1.41-4.3,1.777c-1.586,0.368-3.164,0.553-4.733,0.553
	c-1.922,0-3.74-0.24-5.453-0.721c-1.714-0.481-3.22-1.209-4.517-2.186c-1.297-0.978-2.323-2.227-3.075-3.748
	c-0.753-1.521-1.129-3.323-1.129-5.405h4.324c0,1.44,0.28,2.683,0.841,3.724c0.56,1.041,1.297,1.897,2.21,2.57
	s1.978,1.17,3.195,1.489c1.217,0.321,2.467,0.48,3.748,0.48c1.025,0,2.058-0.096,3.099-0.288s1.978-0.521,2.811-0.984
	c0.833-0.466,1.505-1.098,2.018-1.898c0.512-0.8,0.769-1.826,0.769-3.075c0-1.185-0.312-2.146-0.937-2.883
	c-0.625-0.736-1.458-1.337-2.499-1.802c-1.041-0.464-2.218-0.841-3.531-1.129c-1.314-0.288-2.651-0.584-4.012-0.889
	c-1.362-0.305-2.699-0.656-4.012-1.058c-1.314-0.4-2.491-0.929-3.532-1.585s-1.873-1.506-2.498-2.547
	c-0.625-1.04-0.937-2.346-0.937-3.916c0-1.729,0.352-3.228,1.057-4.492c0.704-1.265,1.641-2.307,2.811-3.123
	c1.169-0.817,2.498-1.425,3.988-1.826c1.489-0.399,3.019-0.601,4.588-0.601c1.762,0,3.395,0.209,4.901,0.625
	c1.505,0.417,2.827,1.073,3.964,1.97c1.137,0.897,2.034,2.026,2.691,3.387c0.656,1.362,1.016,2.988,1.081,4.878h-4.324
	C266.136,148.669,265.247,146.882,263.726,145.778"/>
<polygon fill="#58595B" points="286.337,175.399 274.277,141.094 279.179,141.094 288.98,170.835 289.077,170.835 298.974,141.094 
	303.73,141.094 291.526,175.399 "/>
<path fill="#58595B" d="M320.587,141.094c5.285,0,9.353,1.345,12.204,4.036c2.85,2.69,4.276,6.791,4.276,12.3
	c0,2.883-0.321,5.438-0.961,7.663c-0.642,2.228-1.635,4.101-2.979,5.622s-3.059,2.683-5.141,3.483
	c-2.083,0.801-4.549,1.201-7.399,1.201h-11.772v-34.306H320.587z M320.971,171.556c0.512,0,1.153-0.04,1.922-0.12
	c0.768-0.08,1.584-0.271,2.45-0.576s1.723-0.745,2.571-1.321c0.848-0.577,1.609-1.361,2.282-2.354s1.225-2.234,1.657-3.724
	c0.433-1.49,0.648-3.292,0.648-5.405c0-2.05-0.2-3.884-0.6-5.502c-0.401-1.617-1.058-2.995-1.971-4.132
	c-0.913-1.136-2.09-2.002-3.531-2.594c-1.441-0.594-3.219-0.89-5.333-0.89h-7.688v26.618H320.971z"/>
<path fill="#58595B" d="M348.307,149.26l-9.189,26.14h4.901l8.615-26.14H348.307z M356.366,141.094h-5.188l-1.605,4.566h4.344
	l5.016,15.069h-6.548l-1.187,3.601h8.934l3.683,11.069h4.757L356.366,141.094z"/>
<path fill="#58595B" d="M228.263,149.26l8.615,26.14h4.901l-9.189-26.14H228.263z M212.326,175.399h4.757l3.684-11.069h8.932
	l-1.186-3.6h-6.548l5.015-15.071h4.344l-1.605-4.565h-5.189L212.326,175.399z"/>
</svg>
